<?xml version="1.0" encoding="utf-8"?>
<svg viewBox="-10242.5195 -10225.6765 20985.0371 20951.3535" xmlns="http://www.w3.org/2000/svg">
  <g id="Layer_x0020_1" transform="matrix(0.9999999999999999, 0, 0, 0.9999999999999999, -22017.126953125007, -10226.080078125)">
    <g id="_283818264">
      <g>
        <path class="fil1" d="M15122 9256c-24,176 -41,354 -50,534 -9,172 -82,249 -256,246 -276,-5 -1074,-10 -1349,2 -204,9 -253,-82 -239,-268 77,-990 311,-1941 709,-2849 778,-1777 1999,-3170 3662,-4173 244,-147 496,-279 747,-414 133,-72 239,-51 369,55 451,368 1120,390 1598,78 454,-296 692,-894 562,-1416 -140,-566 -628,-986 -1218,-1046 -509,-52 -1243,344 -1319,844 -81,532 -440,682 -812,882 -2259,1216 -3811,3050 -4692,5446 -418,1136 -603,2322 -578,3538 4,204 60,283 269,273 295,-14 592,-4 888,-3 296,0 1113,7 1409,-2 176,-6 238,65 256,238 9,85 19,169 29,253 -118,-974 4,-2118 15,-2218z" style="fill: rgb(254, 254, 254); fill-rule: nonzero;"/>
        <path class="fil1" d="M22719 2781c0,-207 2,-935 0,-1142 -1,-148 48,-207 213,-189 3406,369 5910,2051 7481,5109 80,156 65,254 -44,389 -363,451 -411,959 -148,1466 240,461 653,708 1175,710 559,2 975,-266 1230,-766 385,-756 -100,-1718 -966,-1880 -229,-43 -321,-146 -418,-342 -815,-1653 -1991,-2994 -3534,-4008 -1020,-670 -2130,-1132 -3319,-1397 -791,-176 -1595,-251 -2408,-224 -179,6 -215,86 -214,237 3,543 -21,1607 9,2148 14,246 -63,360 -228,408 518,-44 1001,-34 1424,3 -253,-43 -254,-123 -254,-521z" style="fill: rgb(254, 254, 254); fill-rule: nonzero;"/>
        <path class="fil1" d="M29459 11331c7,-52 14,-105 21,-158 27,-206 95,-267 291,-257 266,14 1053,8 1320,2 166,-4 222,54 210,227 -106,1512 -586,2896 -1393,4176 -898,1423 -2122,2475 -3606,3244 -204,106 -347,128 -546,-37 -452,-373 -1156,-349 -1613,16 -487,388 -660,1026 -425,1561 261,593 861,930 1478,829 557,-91 1043,-595 1096,-1160 14,-150 72,-215 204,-279 2066,-989 3642,-2491 4691,-4531 762,-1481 1103,-3063 1081,-4727 -3,-201 -85,-252 -268,-250 -552,7 -1626,-7 -2178,7 -197,5 -296,-32 -338,-209 59,678 -7,1374 -25,1545z" style="fill: rgb(254, 254, 254); fill-rule: nonzero;"/>
        <path class="fil1" d="M21287 17638c87,10 175,19 263,27 229,19 309,96 292,324 -19,245 -20,1015 0,1260 20,240 -83,286 -293,263 -666,-76 -1330,-182 -1967,-388 -1660,-536 -3072,-1456 -4208,-2789 -512,-601 -930,-1261 -1284,-1964 -71,-141 -36,-227 56,-340 519,-643 379,-1568 -299,-1977 -501,-302 -1019,-302 -1499,27 -450,309 -643,765 -551,1309 96,568 441,953 999,1073 307,66 424,237 552,486 995,1933 2448,3413 4390,4410 1476,758 3040,1109 4695,1094 233,-2 331,-47 321,-308 -21,-552 4,-1626 -11,-2178 -6,-213 61,-279 266,-303 -699,67 -1522,-6 -1722,-25z" style="fill: rgb(254, 254, 254); fill-rule: nonzero;"/>
        <path class="fil0" d="M23964 8806c-45,16 -68,51 -95,80 -196,215 -360,449 -435,736 -58,222 -51,446 -1,668 65,289 187,559 270,842 148,507 68,971 -263,1388 -118,148 -244,287 -399,403 41,-82 82,-164 123,-246 147,-300 235,-615 225,-950 -8,-254 -75,-496 -170,-731 -132,-328 -302,-638 -471,-948 -5,-10 -15,-17 -35,-39 -5,90 16,161 21,234 25,326 54,653 -27,975 -47,187 -144,345 -329,427 -245,108 -442,22 -591,-175 -138,-182 -120,-383 -61,-582 74,-253 223,-471 347,-700 169,-310 334,-622 442,-960 123,-385 161,-775 73,-1174 -51,-229 -146,-438 -253,-646 -89,-174 -206,-326 -329,-475 -11,-13 -23,-25 -35,-37 -9,-9 -19,-18 -32,-12 -18,7 -13,24 -12,38 5,74 54,134 67,206 6,36 21,68 1,104 -6,11 -5,29 -3,42 71,385 -39,733 -217,1066 -173,323 -413,595 -656,866 -250,279 -510,550 -728,857 -156,221 -285,455 -364,714 -62,203 -81,411 -73,624 15,443 177,838 380,1221 14,27 27,54 35,84 -438,-414 -727,-917 -889,-1499 -51,26 -56,73 -71,111 -199,515 -257,1050 -166,1592 135,803 529,1458 1179,1956 291,223 609,393 959,500 411,126 832,163 1262,116 301,-33 589,-105 866,-225 579,-251 1041,-642 1382,-1174 230,-360 378,-752 431,-1175 37,-298 29,-597 -27,-896 -92,-493 -319,-918 -607,-1319 -210,-292 -433,-577 -602,-897 -138,-262 -202,-537 -150,-834 9,-51 45,-96 34,-156z" style="fill: rgb(247, 173, 14); fill-rule: nonzero;"/>
        <polygon class="fil0" points="22637,13981 25302,13086 23698,17167 22158,17916 20867,17250 19097,14044 19930,13461 " style="fill: rgb(247, 173, 14); fill-rule: nonzero;"/>
        <path class="fil0" d="M22288 3404c0,0 3240,1915 3240,7072 0,5156 -3240,7072 -3240,7072l-40 0c0,0 -3240,-1915 -3240,-7072 0,-5156 3240,-7072 3240,-7072l40 0zm5412 2971c-650,0 -1229,-9 -1808,5 -199,5 -300,-54 -360,-245 -55,-176 -151,-341 -232,-509 -273,-566 -617,-1088 -980,-1602 1370,409 2467,1187 3380,2351zm383 915c153,-2 250,62 307,183 342,725 573,1481 653,2282 19,189 -54,242 -231,237 -364,-9 -729,-3 -1094,-2 -345,0 -690,-10 -1035,4 -218,9 -313,-52 -330,-288 -55,-756 -147,-1508 -368,-2238 -64,-210 98,-172 205,-173 631,-4 1262,3 1892,-5zm954 4015c-98,747 -312,1458 -624,2141 -67,148 -161,220 -340,214 -462,-15 -925,-6 -1387,-5 -196,0 -392,52 -589,11 -78,-16 -155,-20 -127,-142 177,-784 332,-1572 399,-2374 13,-152 106,-165 225,-164 375,2 749,1 1124,0 345,0 691,16 1035,-5 262,-16 317,82 285,324zm-1455 3423c-282,363 -600,692 -955,983 -685,562 -1439,999 -2312,1218 526,-679 932,-1412 1258,-2192 50,-121 120,-164 242,-166 559,-8 1118,-20 1677,-30 163,-3 197,49 90,187zm-7466 2207c-1275,-416 -2321,-1163 -3171,-2195 -34,-41 -66,-76 -39,-126 36,-66 105,-40 159,-41 542,-2 1085,6 1627,-4 178,-3 248,100 299,231 301,770 728,1466 1255,2131 -58,3 -98,15 -131,5zm-3743 -3280c-95,0 -155,-25 -206,-123 -376,-724 -566,-1502 -695,-2300 -33,-203 50,-255 239,-249 364,11 728,3 1092,3 354,0 709,13 1063,-5 217,-11 294,67 307,278 48,747 163,1484 356,2208 40,152 -1,191 -148,190 -669,-4 -1339,-2 -2008,-2zm-902 -3905c120,-802 315,-1579 689,-2305 59,-115 137,-152 257,-152 639,2 1278,4 1917,-2 203,-2 192,79 185,255 -14,352 -180,661 -219,1001 -46,401 -100,802 -132,1204 -16,194 -102,245 -283,240 -365,-11 -730,-3 -1095,-3 -365,0 -730,-6 -1095,2 -178,4 -253,-54 -225,-241zm1507 -3567c358,-430 747,-828 1202,-1157 622,-449 1281,-823 2100,-1042 -579,722 -1005,1454 -1326,2246 -38,94 -88,161 -215,159 -561,-8 -1123,29 -1684,-16 -54,-4 -127,27 -154,-46 -25,-68 40,-101 77,-145zm4571 -3405c-48,14 -102,22 -165,27 -120,8 -239,20 -357,36 -231,36 -467,83 -706,145 -93,24 -182,46 -267,66 -402,121 -794,279 -1179,465 -1485,719 -2624,1806 -3421,3247 -434,784 -734,1611 -854,2491 -11,100 -134,1244 -15,2218 342,2633 1747,4562 4071,5861 817,457 1705,717 2631,824 200,20 1023,93 1722,25 4,0 7,-1 11,-1 64,-7 127,-14 190,-23 4,-1 9,-1 13,-2l0 0c2063,-269 3765,-1215 5098,-2840 320,-390 518,-856 790,-1275 537,-828 737,-1762 869,-2713 18,-171 84,-868 25,-1545 -6,-26 -11,-54 -14,-86 -243,-2094 -1159,-3837 -2786,-5186 -1153,-955 -2472,-1545 -3971,-1701 -108,-11 -193,-20 -260,-31 -422,-36 -905,-47 -1424,-3z" style="fill: rgb(247, 173, 14); fill-rule: nonzero;"/>
      </g>
    </g>
  </g>
</svg>