<?xml version="1.0" encoding="UTF-8"?>
<!DOCTYPE svg PUBLIC "-//W3C//DTD SVG 1.1//EN" "http://www.w3.org/Graphics/SVG/1.1/DTD/svg11.dtd">
<!-- Creator: CorelDRAW X5 -->
<svg xmlns="http://www.w3.org/2000/svg" xml:space="preserve" width="445.364mm" height="283.947mm" style="shape-rendering:geometricPrecision; text-rendering:geometricPrecision; image-rendering:optimizeQuality; fill-rule:evenodd; clip-rule:evenodd"
viewBox="0 0 44536 28395"
 xmlns:xlink="http://www.w3.org/1999/xlink">
 <defs>
  <style type="text/css">
   <![CDATA[
    .fil1 {fill:#FEFEFE;fill-rule:nonzero}
    .fil0 {fill:#F7AD0E;fill-rule:nonzero}
   ]]>
  </style>
 </defs>
 <g id="Layer_x0020_1">
  <metadata id="CorelCorpID_0Corel-Layer"/>
  <g id="_283818264">
   <g>
    <polygon class="fil0" points="1881,25612 1881,22542 0,22542 0,21828 4553,21828 4553,22542 2672,22542 2672,25612 "/>
    <path class="fil0" d="M7463 22736c-83,-160 -188,-260 -393,-260 -205,0 -310,100 -393,260l-642 1239 2063 0 -636 -1239zm2335 2877l-852 0 -481 -935 -2788 0 -481 935 -846 0 1549 -3037c238,-470 526,-802 1173,-802 647,0 929,332 1173,802l1555 3037z"/>
    <polygon class="fil0" points="11468,25612 11468,22542 9587,22542 9587,21828 14140,21828 14140,22542 12259,22542 12259,25612 "/>
    <path class="fil0" d="M19843 21828l-1505 3037c-232,470 -537,802 -1184,802 -647,0 -952,-332 -1184,-802l-1505 -3037 869 0 1427 2832c83,160 188,254 393,254 205,0 310,-94 393,-254l1427 -2832 869 0z"/>
    <path class="fil0" d="M22686 22736c-83,-160 -188,-260 -393,-260 -205,0 -310,100 -393,260l-642 1239 2063 0 -636 -1239zm2335 2877l-852 0 -481 -935 -2788 0 -481 935 -846 0 1549 -3037c238,-470 526,-802 1173,-802 647,0 929,332 1173,802l1555 3037z"/>
    <path class="fil0" d="M26486 22664l0 2949 -774 0 0 -3784 769 0c293,0 420,149 537,293l1571 1931 1571 -1931c116,-144 243,-293 537,-293l769 0 0 3784 -775 0 0 -2949 -1798 2169 -609 0 -1798 -2169z"/>
    <path class="fil0" d="M35276 22736c-83,-160 -188,-260 -393,-260 -205,0 -310,100 -393,260l-642 1239 2063 0 -636 -1239zm2334 2877l-852 0 -481 -935 -2788 0 -481 935 -846 0 1549 -3037c238,-470 526,-802 1173,-802 647,0 929,332 1173,802l1554 3037z"/>
    <path class="fil0" d="M41505 24904c465,0 614,-144 614,-354 0,-254 -227,-382 -769,-426l-1831 -144c-852,-66 -1361,-371 -1361,-1068 0,-802 675,-1084 1455,-1084l3076 0 0 708 -3148 0c-371,0 -581,100 -581,354 0,210 144,321 763,371l1743 138c891,72 1466,354 1466,1117 0,642 -409,1095 -1477,1095l-3314 0 0 -708 3363 0z"/>
    <polygon class="fil0" points="44536,25612 43745,25612 43745,21828 44536,21828 "/>
    <path class="fil1" d="M563 27281l1036 0 0 275 -1036 0 0 -275zm-563 1087l0 -1869 1668 0 0 326 -1344 0 0 1216 1347 0 0 326 -1671 0z"/>
    <path class="fil1" d="M2717 27001l0 1368 -311 0 0 -1697c0,-60 15,-108 45,-143 30,-35 71,-53 122,-53 24,0 47,5 69,15 22,10 45,27 69,51l1319 1308 0 -1368 311 0 0 1712c0,62 -15,110 -45,144 -30,34 -69,51 -117,51 -53,0 -103,-23 -149,-69l-1314 -1321z"/>
    <path class="fil1" d="M5974 28369c-130,0 -251,-24 -361,-73 -111,-49 -207,-116 -288,-201 -81,-85 -145,-185 -190,-302 -45,-117 -68,-243 -68,-378 0,-137 23,-262 68,-375 45,-113 109,-209 190,-289 81,-80 177,-141 288,-185 111,-44 231,-66 361,-66l1013 0 0 326 -1013 0c-84,0 -162,15 -233,45 -71,30 -132,72 -184,125 -51,53 -92,117 -121,190 -29,74 -44,155 -44,244 0,87 15,169 44,244 29,75 69,140 121,194 51,54 113,96 184,127 71,31 149,46 233,46l799 0 0 -486 -843 0 0 -275 1172 0 0 1087 -1129 0z"/>
    <polygon class="fil1" points="7884,26500 8211,26500 8211,28369 7884,28369 "/>
    <path class="fil1" d="M9319 27001l0 1368 -311 0 0 -1697c0,-60 15,-108 45,-143 30,-35 71,-53 122,-53 24,0 47,5 69,15 22,10 45,27 69,51l1319 1308 0 -1368 311 0 0 1712c0,62 -15,110 -45,144 -30,34 -69,51 -117,51 -53,0 -103,-23 -149,-69l-1314 -1321z"/>
    <path class="fil1" d="M12285 27281l1036 0 0 275 -1036 0 0 -275zm-563 1087l0 -1869 1668 0 0 326 -1344 0 0 1216 1347 0 0 326 -1671 0z"/>
    <path class="fil1" d="M14699 27281l1036 0 0 275 -1036 0 0 -275zm-563 1087l0 -1869 1668 0 0 326 -1344 0 0 1216 1347 0 0 326 -1671 0z"/>
    <path class="fil1" d="M18285 28369l-473 -519 -699 0 0 -288 779 0c118,0 207,-32 267,-96 60,-64 90,-157 90,-279 0,-122 -31,-212 -94,-271 -63,-59 -150,-89 -263,-89l-1018 0 0 1542 -324 0 0 -1869 1342 0c106,0 201,16 285,48 84,32 155,77 213,136 58,59 103,131 134,215 31,84 46,178 46,283 0,156 -34,287 -102,392 -68,105 -162,181 -284,227l563 568 -463 0z"/>
    <polygon class="fil1" points="19398,26500 19725,26500 19725,28369 19398,28369 "/>
    <path class="fil1" d="M20832 27001l0 1368 -311 0 0 -1697c0,-60 15,-108 45,-143 30,-35 71,-53 122,-53 24,0 47,5 69,15 22,10 45,27 69,51l1319 1308 0 -1368 311 0 0 1712c0,62 -15,110 -45,144 -30,34 -69,51 -117,51 -53,0 -103,-23 -149,-69l-1314 -1321z"/>
    <path class="fil1" d="M24089 28369c-130,0 -251,-24 -361,-73 -111,-49 -207,-116 -288,-201 -81,-85 -145,-185 -190,-302 -45,-117 -68,-243 -68,-378 0,-137 23,-262 68,-375 45,-113 109,-209 190,-289 81,-80 177,-141 288,-185 111,-44 231,-66 361,-66l1013 0 0 326 -1013 0c-84,0 -162,15 -233,45 -71,30 -132,72 -184,125 -51,53 -92,117 -121,190 -29,74 -44,155 -44,244 0,87 15,169 44,244 29,75 69,140 121,194 51,54 113,96 184,127 71,31 149,46 233,46l799 0 0 -486 -843 0 0 -275 1172 0 0 1087 -1129 0z"/>
    <path class="fil1" d="M27763 27849l0 -316 751 0c115,0 204,-32 269,-98 64,-65 96,-151 96,-257 0,-108 -32,-194 -96,-257 -64,-63 -154,-95 -269,-95l-990 0 0 1542 -324 0 0 -1869 1314 0c108,0 204,16 289,48 85,32 156,76 215,134 58,57 103,127 134,209 31,82 46,175 46,278 0,101 -15,193 -46,276 -31,83 -75,155 -134,215 -58,60 -130,107 -215,140 -85,33 -181,50 -289,50l-751 0z"/>
    <path class="fil1" d="M29765 26500l398 0 848 1440 846 -1440 375 0 -1077 1789c-19,33 -41,58 -67,77 -26,19 -56,28 -90,28 -36,0 -67,-9 -93,-28 -26,-19 -48,-44 -67,-77l-1074 -1789z"/>
    <polygon class="fil1" points="33495,28369 33495,26826 32786,26826 32786,26500 34531,26500 34531,26826 33822,26826 33822,28369 "/>
    <path class="fil1" d="M35269 28214c0,50 -17,91 -51,125 -34,33 -76,50 -126,50 -50,0 -91,-17 -123,-50 -33,-33 -49,-75 -49,-125 0,-50 16,-91 49,-125 33,-33 74,-50 123,-50 50,0 92,17 126,50 34,33 51,75 51,125z"/>
    <polygon class="fil1" points="37274,28369 37274,26500 37601,26500 37601,28042 38858,28042 38858,28369 "/>
    <polygon class="fil1" points="39865,28369 39865,26826 39156,26826 39156,26500 40901,26500 40901,26826 40192,26826 40192,28369 "/>
    <path class="fil1" d="M42662 28042c84,0 162,-15 233,-46 71,-31 133,-73 185,-127 52,-54 93,-119 122,-194 29,-75 44,-157 44,-244 0,-87 -15,-168 -44,-243 -29,-75 -70,-138 -122,-191 -52,-53 -114,-95 -185,-125 -71,-30 -149,-45 -233,-45l-758 0 0 1216 758 0zm-1082 326l0 -1869 1082 0c132,0 254,22 365,67 111,45 207,107 288,188 81,81 144,177 189,289 45,112 68,236 68,371 0,135 -23,261 -68,378 -45,117 -108,217 -189,302 -81,85 -177,152 -288,201 -111,49 -233,73 -365,73l-1082 0z"/>
    <path class="fil1" d="M44536 28214c0,50 -17,91 -51,125 -34,33 -76,50 -126,50 -50,0 -91,-17 -123,-50 -33,-33 -49,-75 -49,-125 0,-50 16,-91 49,-125 33,-33 74,-50 123,-50 50,0 92,17 126,50 34,33 51,75 51,125z"/>
    <path class="fil1" d="M15122 9256c-24,176 -41,354 -50,534 -9,172 -82,249 -256,246 -276,-5 -1074,-10 -1349,2 -204,9 -253,-82 -239,-268 77,-990 311,-1941 709,-2849 778,-1777 1999,-3170 3662,-4173 244,-147 496,-279 747,-414 133,-72 239,-51 369,55 451,368 1120,390 1598,78 454,-296 692,-894 562,-1416 -140,-566 -628,-986 -1218,-1046 -509,-52 -1243,344 -1319,844 -81,532 -440,682 -812,882 -2259,1216 -3811,3050 -4692,5446 -418,1136 -603,2322 -578,3538 4,204 60,283 269,273 295,-14 592,-4 888,-3 296,0 1113,7 1409,-2 176,-6 238,65 256,238 9,85 19,169 29,253 -118,-974 4,-2118 15,-2218z"/>
    <path class="fil1" d="M22719 2781c0,-207 2,-935 0,-1142 -1,-148 48,-207 213,-189 3406,369 5910,2051 7481,5109 80,156 65,254 -44,389 -363,451 -411,959 -148,1466 240,461 653,708 1175,710 559,2 975,-266 1230,-766 385,-756 -100,-1718 -966,-1880 -229,-43 -321,-146 -418,-342 -815,-1653 -1991,-2994 -3534,-4008 -1020,-670 -2130,-1132 -3319,-1397 -791,-176 -1595,-251 -2408,-224 -179,6 -215,86 -214,237 3,543 -21,1607 9,2148 14,246 -63,360 -228,408 518,-44 1001,-34 1424,3 -253,-43 -254,-123 -254,-521z"/>
    <path class="fil1" d="M29459 11331c7,-52 14,-105 21,-158 27,-206 95,-267 291,-257 266,14 1053,8 1320,2 166,-4 222,54 210,227 -106,1512 -586,2896 -1393,4176 -898,1423 -2122,2475 -3606,3244 -204,106 -347,128 -546,-37 -452,-373 -1156,-349 -1613,16 -487,388 -660,1026 -425,1561 261,593 861,930 1478,829 557,-91 1043,-595 1096,-1160 14,-150 72,-215 204,-279 2066,-989 3642,-2491 4691,-4531 762,-1481 1103,-3063 1081,-4727 -3,-201 -85,-252 -268,-250 -552,7 -1626,-7 -2178,7 -197,5 -296,-32 -338,-209 59,678 -7,1374 -25,1545z"/>
    <path class="fil1" d="M21287 17638c87,10 175,19 263,27 229,19 309,96 292,324 -19,245 -20,1015 0,1260 20,240 -83,286 -293,263 -666,-76 -1330,-182 -1967,-388 -1660,-536 -3072,-1456 -4208,-2789 -512,-601 -930,-1261 -1284,-1964 -71,-141 -36,-227 56,-340 519,-643 379,-1568 -299,-1977 -501,-302 -1019,-302 -1499,27 -450,309 -643,765 -551,1309 96,568 441,953 999,1073 307,66 424,237 552,486 995,1933 2448,3413 4390,4410 1476,758 3040,1109 4695,1094 233,-2 331,-47 321,-308 -21,-552 4,-1626 -11,-2178 -6,-213 61,-279 266,-303 -699,67 -1522,-6 -1722,-25z"/>
    <path class="fil0" d="M23964 8806c-45,16 -68,51 -95,80 -196,215 -360,449 -435,736 -58,222 -51,446 -1,668 65,289 187,559 270,842 148,507 68,971 -263,1388 -118,148 -244,287 -399,403 41,-82 82,-164 123,-246 147,-300 235,-615 225,-950 -8,-254 -75,-496 -170,-731 -132,-328 -302,-638 -471,-948 -5,-10 -15,-17 -35,-39 -5,90 16,161 21,234 25,326 54,653 -27,975 -47,187 -144,345 -329,427 -245,108 -442,22 -591,-175 -138,-182 -120,-383 -61,-582 74,-253 223,-471 347,-700 169,-310 334,-622 442,-960 123,-385 161,-775 73,-1174 -51,-229 -146,-438 -253,-646 -89,-174 -206,-326 -329,-475 -11,-13 -23,-25 -35,-37 -9,-9 -19,-18 -32,-12 -18,7 -13,24 -12,38 5,74 54,134 67,206 6,36 21,68 1,104 -6,11 -5,29 -3,42 71,385 -39,733 -217,1066 -173,323 -413,595 -656,866 -250,279 -510,550 -728,857 -156,221 -285,455 -364,714 -62,203 -81,411 -73,624 15,443 177,838 380,1221 14,27 27,54 35,84 -438,-414 -727,-917 -889,-1499 -51,26 -56,73 -71,111 -199,515 -257,1050 -166,1592 135,803 529,1458 1179,1956 291,223 609,393 959,500 411,126 832,163 1262,116 301,-33 589,-105 866,-225 579,-251 1041,-642 1382,-1174 230,-360 378,-752 431,-1175 37,-298 29,-597 -27,-896 -92,-493 -319,-918 -607,-1319 -210,-292 -433,-577 -602,-897 -138,-262 -202,-537 -150,-834 9,-51 45,-96 34,-156z"/>
    <polygon class="fil0" points="22637,13981 25302,13086 23698,17167 22158,17916 20867,17250 19097,14044 19930,13461 "/>
    <path class="fil0" d="M22288 3404c0,0 3240,1915 3240,7072 0,5156 -3240,7072 -3240,7072l-40 0c0,0 -3240,-1915 -3240,-7072 0,-5156 3240,-7072 3240,-7072l40 0zm5412 2971c-650,0 -1229,-9 -1808,5 -199,5 -300,-54 -360,-245 -55,-176 -151,-341 -232,-509 -273,-566 -617,-1088 -980,-1602 1370,409 2467,1187 3380,2351zm383 915c153,-2 250,62 307,183 342,725 573,1481 653,2282 19,189 -54,242 -231,237 -364,-9 -729,-3 -1094,-2 -345,0 -690,-10 -1035,4 -218,9 -313,-52 -330,-288 -55,-756 -147,-1508 -368,-2238 -64,-210 98,-172 205,-173 631,-4 1262,3 1892,-5zm954 4015c-98,747 -312,1458 -624,2141 -67,148 -161,220 -340,214 -462,-15 -925,-6 -1387,-5 -196,0 -392,52 -589,11 -78,-16 -155,-20 -127,-142 177,-784 332,-1572 399,-2374 13,-152 106,-165 225,-164 375,2 749,1 1124,0 345,0 691,16 1035,-5 262,-16 317,82 285,324zm-1455 3423c-282,363 -600,692 -955,983 -685,562 -1439,999 -2312,1218 526,-679 932,-1412 1258,-2192 50,-121 120,-164 242,-166 559,-8 1118,-20 1677,-30 163,-3 197,49 90,187zm-7466 2207c-1275,-416 -2321,-1163 -3171,-2195 -34,-41 -66,-76 -39,-126 36,-66 105,-40 159,-41 542,-2 1085,6 1627,-4 178,-3 248,100 299,231 301,770 728,1466 1255,2131 -58,3 -98,15 -131,5zm-3743 -3280c-95,0 -155,-25 -206,-123 -376,-724 -566,-1502 -695,-2300 -33,-203 50,-255 239,-249 364,11 728,3 1092,3 354,0 709,13 1063,-5 217,-11 294,67 307,278 48,747 163,1484 356,2208 40,152 -1,191 -148,190 -669,-4 -1339,-2 -2008,-2zm-902 -3905c120,-802 315,-1579 689,-2305 59,-115 137,-152 257,-152 639,2 1278,4 1917,-2 203,-2 192,79 185,255 -14,352 -180,661 -219,1001 -46,401 -100,802 -132,1204 -16,194 -102,245 -283,240 -365,-11 -730,-3 -1095,-3 -365,0 -730,-6 -1095,2 -178,4 -253,-54 -225,-241zm1507 -3567c358,-430 747,-828 1202,-1157 622,-449 1281,-823 2100,-1042 -579,722 -1005,1454 -1326,2246 -38,94 -88,161 -215,159 -561,-8 -1123,29 -1684,-16 -54,-4 -127,27 -154,-46 -25,-68 40,-101 77,-145zm4571 -3405c-48,14 -102,22 -165,27 -120,8 -239,20 -357,36 -231,36 -467,83 -706,145 -93,24 -182,46 -267,66 -402,121 -794,279 -1179,465 -1485,719 -2624,1806 -3421,3247 -434,784 -734,1611 -854,2491 -11,100 -134,1244 -15,2218 342,2633 1747,4562 4071,5861 817,457 1705,717 2631,824 200,20 1023,93 1722,25 4,0 7,-1 11,-1 64,-7 127,-14 190,-23 4,-1 9,-1 13,-2l0 0c2063,-269 3765,-1215 5098,-2840 320,-390 518,-856 790,-1275 537,-828 737,-1762 869,-2713 18,-171 84,-868 25,-1545 -6,-26 -11,-54 -14,-86 -243,-2094 -1159,-3837 -2786,-5186 -1153,-955 -2472,-1545 -3971,-1701 -108,-11 -193,-20 -260,-31 -422,-36 -905,-47 -1424,-3z"/>
   </g>
  </g>
 </g>
</svg>
