<?xml version="1.0" encoding="UTF-8"?>
<!DOCTYPE svg PUBLIC "-//W3C//DTD SVG 1.1//EN" "http://www.w3.org/Graphics/SVG/1.1/DTD/svg11.dtd">
<!-- Creator: CorelDRAW X5 -->
<svg xmlns="http://www.w3.org/2000/svg" xml:space="preserve" width="152.4mm" height="152.4mm" style="shape-rendering:geometricPrecision; text-rendering:geometricPrecision; image-rendering:optimizeQuality; fill-rule:evenodd; clip-rule:evenodd"
viewBox="0 0 15240 15240"
 xmlns:xlink="http://www.w3.org/1999/xlink">
 <defs>
  <style type="text/css">
   <![CDATA[
    .fil0 {fill:none}
    .fil2 {fill:black;fill-rule:nonzero}
    .fil1 {fill:#F7AD0E;fill-rule:nonzero}
   ]]>
  </style>
 </defs>
 <g id="Layer_x0020_1">
  <metadata id="CorelCorpID_0Corel-Layer"/>
  <g id="_198459784">
   <rect class="fil0" width="15240" height="15240"/>
   <g>
    <polygon class="fil1" points="1216,11206 1216,10241 625,10241 625,10017 2055,10017 2055,10241 1465,10241 1465,11206 "/>
    <path class="fil1" d="M2969 10302c-26,-50 -59,-82 -123,-82 -64,0 -97,31 -123,82l-202 389 648 0 -200 -389zm733 904l-268 0 -151 -294 -876 0 -151 294 -266 0 487 -954c75,-148 165,-252 368,-252 203,0 292,104 368,252l488 954z"/>
    <polygon class="fil1" points="4227,11206 4227,10241 3637,10241 3637,10017 5067,10017 5067,10241 4476,10241 4476,11206 "/>
    <path class="fil1" d="M6858 10017l-473 954c-73,148 -169,252 -372,252 -203,0 -299,-104 -372,-252l-473 -954 273 0 448 890c26,50 59,80 123,80 64,0 97,-30 123,-80l448 -890 273 0z"/>
    <path class="fil1" d="M7751 10302c-26,-50 -59,-82 -123,-82 -64,0 -97,31 -123,82l-202 389 648 0 -200 -389zm733 904l-268 0 -151 -294 -876 0 -151 294 -266 0 487 -954c75,-148 165,-252 368,-252 203,0 292,104 368,252l488 954z"/>
    <path class="fil1" d="M8945 10279l0 926 -243 0 0 -1189 242 0c92,0 132,47 169,92l493 606 494 -606c37,-45 76,-92 169,-92l242 0 0 1189 -243 0 0 -926 -565 681 -191 0 -565 -681z"/>
    <path class="fil1" d="M11706 10302c-26,-50 -59,-82 -123,-82 -64,0 -97,31 -123,82l-202 389 648 0 -200 -389zm733 904l-268 0 -151 -294 -876 0 -151 294 -266 0 487 -954c75,-148 165,-252 368,-252 203,0 292,104 368,252l488 954z"/>
    <path class="fil1" d="M13663 10983c146,0 193,-45 193,-111 0,-80 -71,-120 -242,-134l-575 -45c-268,-21 -427,-116 -427,-335 0,-252 212,-341 457,-341l966 0 0 222 -989 0c-116,0 -182,31 -182,111 0,66 45,101 240,116l547 43c280,23 460,111 460,351 0,202 -129,344 -464,344l-1041 0 0 -222 1057 0z"/>
    <polygon class="fil1" points="14615,11206 14366,11206 14366,10017 14615,10017 "/>
    <path class="fil2" d="M802 11730l325 0 0 86 -325 0 0 -86zm-177 342l0 -587 524 0 0 103 -422 0 0 382 423 0 0 103 -525 0z"/>
    <path class="fil2" d="M1479 11642l0 430 -98 0 0 -533c0,-19 5,-34 14,-45 9,-11 22,-17 38,-17 8,0 15,2 22,5 7,3 14,9 22,16l414 411 0 -430 98 0 0 538c0,19 -5,34 -14,45 -9,11 -22,16 -37,16 -17,0 -32,-7 -47,-22l-413 -415z"/>
    <path class="fil2" d="M2502 12071c-41,0 -79,-8 -113,-23 -35,-15 -65,-36 -90,-63 -26,-27 -45,-58 -60,-95 -14,-37 -21,-76 -21,-119 0,-43 7,-82 21,-118 14,-36 34,-66 60,-91 26,-25 56,-44 90,-58 35,-14 73,-21 113,-21l318 0 0 103 -318 0c-26,0 -51,5 -73,14 -22,9 -42,22 -58,39 -16,17 -29,37 -38,60 -9,23 -14,49 -14,77 0,27 5,53 14,77 9,24 22,44 38,61 16,17 35,30 58,40 22,10 47,15 73,15l251 0 0 -153 -265 0 0 -86 368 0 0 342 -354 0z"/>
    <polygon class="fil2" points="3102,11484 3204,11484 3204,12071 3102,12071 "/>
    <path class="fil2" d="M3552 11642l0 430 -98 0 0 -533c0,-19 5,-34 14,-45 9,-11 22,-17 38,-17 8,0 15,2 22,5 7,3 14,9 22,16l414 411 0 -430 98 0 0 538c0,19 -5,34 -14,45 -9,11 -22,16 -37,16 -17,0 -32,-7 -47,-22l-413 -415z"/>
    <path class="fil2" d="M4484 11730l325 0 0 86 -325 0 0 -86zm-177 342l0 -587 524 0 0 103 -422 0 0 382 423 0 0 103 -525 0z"/>
    <path class="fil2" d="M5242 11730l325 0 0 86 -325 0 0 -86zm-177 342l0 -587 524 0 0 103 -422 0 0 382 423 0 0 103 -525 0z"/>
    <path class="fil2" d="M6369 12071l-149 -163 -220 0 0 -90 245 0c37,0 65,-10 84,-30 19,-20 28,-49 28,-88 0,-38 -10,-67 -29,-85 -20,-19 -47,-28 -83,-28l-320 0 0 484 -102 0 0 -587 422 0c33,0 63,5 90,15 26,10 49,24 67,43 18,19 32,41 42,67 10,26 15,56 15,89 0,49 -11,90 -32,123 -21,33 -51,57 -89,71l177 178 -145 0z"/>
    <polygon class="fil2" points="6718,11484 6821,11484 6821,12071 6718,12071 "/>
    <path class="fil2" d="M7169 11642l0 430 -98 0 0 -533c0,-19 5,-34 14,-45 9,-11 22,-17 38,-17 8,0 15,2 22,5 7,3 14,9 22,16l414 411 0 -430 98 0 0 538c0,19 -5,34 -14,45 -9,11 -22,16 -37,16 -17,0 -32,-7 -47,-22l-413 -415z"/>
    <path class="fil2" d="M8192 12071c-41,0 -79,-8 -113,-23 -35,-15 -65,-36 -90,-63 -26,-27 -46,-58 -60,-95 -14,-37 -21,-76 -21,-119 0,-43 7,-82 21,-118 14,-36 34,-66 60,-91 26,-25 56,-44 90,-58 35,-14 73,-21 113,-21l318 0 0 103 -318 0c-26,0 -51,5 -73,14 -22,9 -42,22 -58,39 -16,17 -29,37 -38,60 -9,23 -14,49 -14,77 0,27 5,53 14,77 9,24 22,44 38,61 16,17 35,30 58,40 22,10 47,15 73,15l251 0 0 -153 -265 0 0 -86 368 0 0 342 -354 0z"/>
    <path class="fil2" d="M9346 11908l0 -99 236 0c36,0 64,-10 84,-31 20,-20 30,-47 30,-81 0,-34 -10,-61 -30,-81 -20,-20 -48,-30 -84,-30l-311 0 0 484 -102 0 0 -587 413 0c34,0 64,5 91,15 27,10 49,24 67,42 18,18 32,40 42,66 10,26 15,55 15,87 0,32 -5,61 -15,87 -10,26 -24,49 -42,67 -18,19 -41,34 -67,44 -27,10 -57,16 -91,16l-236 0z"/>
    <path class="fil2" d="M9975 11484l125 0 266 452 266 -452 118 0 -338 562c-6,10 -13,18 -21,24 -8,6 -17,9 -28,9 -11,0 -21,-3 -29,-9 -8,-6 -15,-14 -21,-24l-338 -562z"/>
    <polygon class="fil2" points="11147,12071 11147,11587 10924,11587 10924,11484 11472,11484 11472,11587 11249,11587 11249,12071 "/>
    <path class="fil2" d="M11704 12023c0,16 -5,29 -16,39 -11,11 -24,16 -40,16 -16,0 -29,-5 -39,-16 -10,-10 -15,-24 -15,-39 0,-16 5,-29 15,-39 10,-11 23,-16 39,-16 16,0 29,5 40,16 11,11 16,24 16,39z"/>
    <polygon class="fil2" points="12334,12071 12334,11484 12436,11484 12436,11969 12831,11969 12831,12071 "/>
    <polygon class="fil2" points="13148,12071 13148,11587 12925,11587 12925,11484 13473,11484 13473,11587 13250,11587 13250,12071 "/>
    <path class="fil2" d="M14026 11969c26,0 51,-5 73,-15 22,-10 42,-23 58,-40 16,-17 29,-37 38,-61 9,-24 14,-49 14,-77 0,-27 -5,-53 -14,-76 -9,-23 -22,-43 -38,-60 -16,-17 -36,-30 -58,-39 -22,-9 -47,-14 -73,-14l-238 0 0 382 238 0zm-340 103l0 -587 340 0c41,0 80,7 115,21 35,14 65,34 90,59 25,25 45,56 59,91 14,35 21,74 21,117 0,43 -7,82 -21,119 -14,37 -34,68 -59,95 -25,27 -55,48 -90,63 -35,15 -73,23 -115,23l-340 0z"/>
    <path class="fil2" d="M14615 12023c0,16 -5,29 -16,39 -11,11 -24,16 -40,16 -16,0 -29,-5 -39,-16 -10,-10 -15,-24 -15,-39 0,-16 5,-29 15,-39 10,-11 23,-16 39,-16 16,0 29,5 40,16 11,11 16,24 16,39z"/>
    <path class="fil2" d="M5375 6068c-8,55 -13,111 -16,168 -3,54 -26,78 -80,77 -87,-2 -337,-3 -424,1 -64,3 -79,-26 -75,-84 24,-311 98,-610 223,-895 245,-558 628,-996 1150,-1311 77,-46 156,-88 235,-130 42,-22 75,-16 116,17 142,116 352,122 502,25 143,-93 217,-281 177,-445 -44,-178 -197,-310 -383,-329 -160,-16 -390,108 -414,265 -25,167 -138,214 -255,277 -710,382 -1197,958 -1474,1711 -131,357 -189,729 -181,1111 1,64 19,89 85,86 93,-4 186,-1 279,-1 93,0 350,2 442,-1 55,-2 75,20 80,75 3,27 6,53 9,79 -37,-306 1,-665 5,-697z"/>
    <path class="fil2" d="M7762 4034c0,-65 1,-294 0,-359 0,-46 15,-65 67,-59 1070,116 1857,644 2350,1605 25,49 20,80 -14,122 -114,142 -129,301 -46,460 75,145 205,222 369,223 176,1 306,-83 386,-241 121,-237 -31,-540 -303,-591 -72,-13 -101,-46 -131,-107 -256,-519 -626,-940 -1110,-1259 -320,-210 -669,-356 -1042,-439 -249,-55 -501,-79 -757,-70 -56,2 -67,27 -67,74 1,170 -7,505 3,675 4,77 -20,113 -72,128 163,-14 314,-11 447,1 -80,-13 -80,-39 -80,-164z"/>
    <path class="fil2" d="M9879 6720c2,-16 5,-33 7,-50 9,-65 30,-84 91,-81 83,4 331,3 415,1 52,-1 70,17 66,71 -33,475 -184,910 -438,1312 -282,447 -666,778 -1133,1019 -64,33 -109,40 -172,-12 -142,-117 -363,-109 -507,5 -153,122 -207,322 -133,490 82,186 271,292 464,260 175,-29 328,-187 344,-364 4,-47 22,-68 64,-87 649,-311 1144,-783 1473,-1423 239,-465 346,-962 340,-1485 -1,-63 -27,-79 -84,-79 -174,2 -511,-2 -684,2 -62,2 -93,-10 -106,-66 19,213 -2,432 -8,485z"/>
    <path class="fil2" d="M7312 8701c27,3 55,6 82,8 72,6 97,30 92,102 -6,77 -6,319 0,396 6,75 -26,90 -92,82 -209,-24 -418,-57 -618,-122 -521,-168 -965,-457 -1322,-876 -161,-189 -292,-396 -403,-617 -22,-44 -11,-71 18,-107 163,-202 119,-493 -94,-621 -157,-95 -320,-95 -471,9 -141,97 -202,240 -173,411 30,178 138,299 314,337 96,21 133,74 173,153 313,607 769,1072 1379,1385 464,238 955,348 1475,344 73,-1 104,-15 101,-97 -7,-173 1,-511 -3,-684 -2,-67 19,-88 84,-95 -220,21 -478,-2 -541,-8z"/>
    <path class="fil1" d="M8153 5926c-14,5 -21,16 -30,25 -62,67 -113,141 -137,231 -18,70 -16,140 0,210 20,91 59,176 85,264 47,159 21,305 -83,436 -37,46 -77,90 -125,127 13,-26 26,-52 39,-77 46,-94 74,-193 71,-299 -3,-80 -24,-156 -53,-230 -41,-103 -95,-200 -148,-298 -2,-3 -5,-5 -11,-12 -1,28 5,51 7,73 8,102 17,205 -9,306 -15,59 -45,108 -103,134 -77,34 -139,7 -186,-55 -43,-57 -38,-120 -19,-183 23,-79 70,-148 109,-220 53,-98 105,-195 139,-302 39,-121 51,-243 23,-369 -16,-72 -46,-138 -79,-203 -28,-55 -65,-102 -103,-149 -3,-4 -7,-8 -11,-11 -3,-3 -6,-6 -10,-4 -6,2 -4,7 -4,12 2,23 17,42 21,65 2,11 7,21 0,33 -2,4 -2,9 -1,13 22,121 -12,230 -68,335 -54,101 -130,187 -206,272 -79,88 -160,173 -229,269 -49,69 -90,143 -114,224 -20,64 -25,129 -23,196 5,139 56,263 120,384 4,8 8,17 11,26 -138,-130 -228,-288 -279,-471 -16,8 -18,23 -22,35 -62,162 -81,330 -52,500 42,252 166,458 370,614 91,70 191,123 301,157 129,40 261,51 396,36 95,-10 185,-33 272,-71 182,-79 327,-202 434,-369 72,-113 119,-236 135,-369 12,-94 9,-188 -9,-281 -29,-155 -100,-289 -191,-414 -66,-92 -136,-181 -189,-282 -43,-82 -63,-169 -47,-262 3,-16 14,-30 11,-49z"/>
    <polygon class="fil1" points="7736,7552 8573,7271 8069,8553 7585,8788 7180,8579 6624,7572 6886,7389 "/>
    <path class="fil1" d="M7626 4230c0,0 1018,602 1018,2221 0,1620 -1018,2221 -1018,2221l-13 0c0,0 -1018,-602 -1018,-2221 0,-1620 1018,-2221 1018,-2221l13 0zm1700 933c-204,0 -386,-3 -568,2 -62,2 -94,-17 -113,-77 -17,-55 -47,-107 -73,-160 -86,-178 -194,-342 -308,-503 430,129 775,373 1062,738zm120 287c48,-1 79,20 96,57 107,228 180,465 205,717 6,59 -17,76 -73,75 -114,-3 -229,-1 -344,-1 -108,0 -217,-3 -325,1 -68,3 -98,-16 -104,-90 -17,-237 -46,-474 -116,-703 -20,-66 31,-54 65,-54 198,-1 396,1 594,-2zm300 1261c-31,235 -98,458 -196,673 -21,46 -51,69 -107,67 -145,-5 -290,-2 -436,-2 -62,0 -123,16 -185,3 -25,-5 -49,-6 -40,-45 56,-246 104,-494 125,-746 4,-48 33,-52 71,-52 118,1 235,0 353,0 108,0 217,5 325,-2 82,-5 100,26 90,102zm-457 1075c-89,114 -189,217 -300,309 -215,177 -452,314 -726,383 165,-213 293,-444 395,-688 16,-38 38,-52 76,-52 176,-2 351,-6 527,-9 51,-1 62,15 28,59zm-2345 693c-400,-131 -729,-365 -996,-690 -11,-13 -21,-24 -12,-40 11,-21 33,-13 50,-13 170,-1 341,2 511,-1 56,-1 78,31 94,72 95,242 229,461 394,669 -18,1 -31,5 -41,1zm-1176 -1030c-30,0 -49,-8 -65,-39 -118,-227 -178,-472 -218,-722 -10,-64 16,-80 75,-78 114,3 229,1 343,1 111,0 223,4 334,-1 68,-3 92,21 97,87 15,235 51,466 112,693 13,48 0,60 -47,60 -210,-1 -420,-1 -631,-1zm-283 -1226c38,-252 99,-496 217,-724 19,-36 43,-48 81,-48 201,1 401,1 602,0 64,-1 60,25 58,80 -5,110 -57,208 -69,315 -14,126 -31,252 -42,378 -5,61 -32,77 -89,75 -115,-4 -229,-1 -344,-1 -115,0 -229,-2 -344,1 -56,1 -79,-17 -71,-76zm473 -1120c113,-135 235,-260 378,-363 195,-141 403,-258 660,-327 -182,227 -316,457 -417,706 -12,30 -28,51 -68,50 -176,-3 -353,9 -529,-5 -17,-1 -40,9 -48,-14 -8,-21 13,-32 24,-46zm1436 -1069c-15,4 -32,7 -52,8 -38,3 -75,6 -112,11 -73,11 -147,26 -222,45 -29,8 -57,14 -84,21 -126,38 -250,88 -370,146 -467,226 -824,567 -1075,1020 -136,246 -230,506 -268,783 -4,31 -42,391 -5,697 107,827 549,1433 1279,1841 257,144 535,225 826,259 63,6 321,29 541,8 1,0 2,0 3,0 20,-2 40,-5 60,-7 1,0 3,0 4,-1l0 0c648,-85 1183,-382 1601,-892 100,-122 163,-269 248,-400 169,-260 231,-553 273,-852 6,-54 26,-273 8,-485 -2,-8 -3,-17 -5,-27 -76,-658 -364,-1205 -875,-1629 -362,-300 -776,-485 -1247,-534 -34,-4 -61,-6 -82,-10 -133,-11 -284,-15 -447,-1z"/>
   </g>
  </g>
 </g>
</svg>
