<?xml version="1.0" encoding="utf-8"?>
<svg viewBox="-3046.0581 -3040.0259 6592.1162 6580.0513" xmlns="http://www.w3.org/2000/svg">
  <g transform="matrix(1, 0, 0, 1, -7370.007324218752, -6200.633544921875)">
    <path class="fil2" d="M5375 6068c-8,55 -13,111 -16,168 -3,54 -26,78 -80,77 -87,-2 -337,-3 -424,1 -64,3 -79,-26 -75,-84 24,-311 98,-610 223,-895 245,-558 628,-996 1150,-1311 77,-46 156,-88 235,-130 42,-22 75,-16 116,17 142,116 352,122 502,25 143,-93 217,-281 177,-445 -44,-178 -197,-310 -383,-329 -160,-16 -390,108 -414,265 -25,167 -138,214 -255,277 -710,382 -1197,958 -1474,1711 -131,357 -189,729 -181,1111 1,64 19,89 85,86 93,-4 186,-1 279,-1 93,0 350,2 442,-1 55,-2 75,20 80,75 3,27 6,53 9,79 -37,-306 1,-665 5,-697z" style="fill-rule: nonzero;"/>
    <path class="fil2" d="M7762 4034c0,-65 1,-294 0,-359 0,-46 15,-65 67,-59 1070,116 1857,644 2350,1605 25,49 20,80 -14,122 -114,142 -129,301 -46,460 75,145 205,222 369,223 176,1 306,-83 386,-241 121,-237 -31,-540 -303,-591 -72,-13 -101,-46 -131,-107 -256,-519 -626,-940 -1110,-1259 -320,-210 -669,-356 -1042,-439 -249,-55 -501,-79 -757,-70 -56,2 -67,27 -67,74 1,170 -7,505 3,675 4,77 -20,113 -72,128 163,-14 314,-11 447,1 -80,-13 -80,-39 -80,-164z" style="fill-rule: nonzero;"/>
    <path class="fil2" d="M9879 6720c2,-16 5,-33 7,-50 9,-65 30,-84 91,-81 83,4 331,3 415,1 52,-1 70,17 66,71 -33,475 -184,910 -438,1312 -282,447 -666,778 -1133,1019 -64,33 -109,40 -172,-12 -142,-117 -363,-109 -507,5 -153,122 -207,322 -133,490 82,186 271,292 464,260 175,-29 328,-187 344,-364 4,-47 22,-68 64,-87 649,-311 1144,-783 1473,-1423 239,-465 346,-962 340,-1485 -1,-63 -27,-79 -84,-79 -174,2 -511,-2 -684,2 -62,2 -93,-10 -106,-66 19,213 -2,432 -8,485z" style="fill-rule: nonzero;"/>
    <path class="fil2" d="M7312 8701c27,3 55,6 82,8 72,6 97,30 92,102 -6,77 -6,319 0,396 6,75 -26,90 -92,82 -209,-24 -418,-57 -618,-122 -521,-168 -965,-457 -1322,-876 -161,-189 -292,-396 -403,-617 -22,-44 -11,-71 18,-107 163,-202 119,-493 -94,-621 -157,-95 -320,-95 -471,9 -141,97 -202,240 -173,411 30,178 138,299 314,337 96,21 133,74 173,153 313,607 769,1072 1379,1385 464,238 955,348 1475,344 73,-1 104,-15 101,-97 -7,-173 1,-511 -3,-684 -2,-67 19,-88 84,-95 -220,21 -478,-2 -541,-8z" style="fill-rule: nonzero;"/>
    <path class="fil1" d="M8153 5926c-14,5 -21,16 -30,25 -62,67 -113,141 -137,231 -18,70 -16,140 0,210 20,91 59,176 85,264 47,159 21,305 -83,436 -37,46 -77,90 -125,127 13,-26 26,-52 39,-77 46,-94 74,-193 71,-299 -3,-80 -24,-156 -53,-230 -41,-103 -95,-200 -148,-298 -2,-3 -5,-5 -11,-12 -1,28 5,51 7,73 8,102 17,205 -9,306 -15,59 -45,108 -103,134 -77,34 -139,7 -186,-55 -43,-57 -38,-120 -19,-183 23,-79 70,-148 109,-220 53,-98 105,-195 139,-302 39,-121 51,-243 23,-369 -16,-72 -46,-138 -79,-203 -28,-55 -65,-102 -103,-149 -3,-4 -7,-8 -11,-11 -3,-3 -6,-6 -10,-4 -6,2 -4,7 -4,12 2,23 17,42 21,65 2,11 7,21 0,33 -2,4 -2,9 -1,13 22,121 -12,230 -68,335 -54,101 -130,187 -206,272 -79,88 -160,173 -229,269 -49,69 -90,143 -114,224 -20,64 -25,129 -23,196 5,139 56,263 120,384 4,8 8,17 11,26 -138,-130 -228,-288 -279,-471 -16,8 -18,23 -22,35 -62,162 -81,330 -52,500 42,252 166,458 370,614 91,70 191,123 301,157 129,40 261,51 396,36 95,-10 185,-33 272,-71 182,-79 327,-202 434,-369 72,-113 119,-236 135,-369 12,-94 9,-188 -9,-281 -29,-155 -100,-289 -191,-414 -66,-92 -136,-181 -189,-282 -43,-82 -63,-169 -47,-262 3,-16 14,-30 11,-49z" style="fill: rgb(247, 173, 14); fill-rule: nonzero;"/>
    <polygon class="fil1" points="7736,7552 8573,7271 8069,8553 7585,8788 7180,8579 6624,7572 6886,7389 " style="fill: rgb(247, 173, 14); fill-rule: nonzero;"/>
    <path class="fil1" d="M7626 4230c0,0 1018,602 1018,2221 0,1620 -1018,2221 -1018,2221l-13 0c0,0 -1018,-602 -1018,-2221 0,-1620 1018,-2221 1018,-2221l13 0zm1700 933c-204,0 -386,-3 -568,2 -62,2 -94,-17 -113,-77 -17,-55 -47,-107 -73,-160 -86,-178 -194,-342 -308,-503 430,129 775,373 1062,738zm120 287c48,-1 79,20 96,57 107,228 180,465 205,717 6,59 -17,76 -73,75 -114,-3 -229,-1 -344,-1 -108,0 -217,-3 -325,1 -68,3 -98,-16 -104,-90 -17,-237 -46,-474 -116,-703 -20,-66 31,-54 65,-54 198,-1 396,1 594,-2zm300 1261c-31,235 -98,458 -196,673 -21,46 -51,69 -107,67 -145,-5 -290,-2 -436,-2 -62,0 -123,16 -185,3 -25,-5 -49,-6 -40,-45 56,-246 104,-494 125,-746 4,-48 33,-52 71,-52 118,1 235,0 353,0 108,0 217,5 325,-2 82,-5 100,26 90,102zm-457 1075c-89,114 -189,217 -300,309 -215,177 -452,314 -726,383 165,-213 293,-444 395,-688 16,-38 38,-52 76,-52 176,-2 351,-6 527,-9 51,-1 62,15 28,59zm-2345 693c-400,-131 -729,-365 -996,-690 -11,-13 -21,-24 -12,-40 11,-21 33,-13 50,-13 170,-1 341,2 511,-1 56,-1 78,31 94,72 95,242 229,461 394,669 -18,1 -31,5 -41,1zm-1176 -1030c-30,0 -49,-8 -65,-39 -118,-227 -178,-472 -218,-722 -10,-64 16,-80 75,-78 114,3 229,1 343,1 111,0 223,4 334,-1 68,-3 92,21 97,87 15,235 51,466 112,693 13,48 0,60 -47,60 -210,-1 -420,-1 -631,-1zm-283 -1226c38,-252 99,-496 217,-724 19,-36 43,-48 81,-48 201,1 401,1 602,0 64,-1 60,25 58,80 -5,110 -57,208 -69,315 -14,126 -31,252 -42,378 -5,61 -32,77 -89,75 -115,-4 -229,-1 -344,-1 -115,0 -229,-2 -344,1 -56,1 -79,-17 -71,-76zm473 -1120c113,-135 235,-260 378,-363 195,-141 403,-258 660,-327 -182,227 -316,457 -417,706 -12,30 -28,51 -68,50 -176,-3 -353,9 -529,-5 -17,-1 -40,9 -48,-14 -8,-21 13,-32 24,-46zm1436 -1069c-15,4 -32,7 -52,8 -38,3 -75,6 -112,11 -73,11 -147,26 -222,45 -29,8 -57,14 -84,21 -126,38 -250,88 -370,146 -467,226 -824,567 -1075,1020 -136,246 -230,506 -268,783 -4,31 -42,391 -5,697 107,827 549,1433 1279,1841 257,144 535,225 826,259 63,6 321,29 541,8 1,0 2,0 3,0 20,-2 40,-5 60,-7 1,0 3,0 4,-1l0 0c648,-85 1183,-382 1601,-892 100,-122 163,-269 248,-400 169,-260 231,-553 273,-852 6,-54 26,-273 8,-485 -2,-8 -3,-17 -5,-27 -76,-658 -364,-1205 -875,-1629 -362,-300 -776,-485 -1247,-534 -34,-4 -61,-6 -82,-10 -133,-11 -284,-15 -447,-1z" style="fill: rgb(247, 173, 14); fill-rule: nonzero;"/>
  </g>
</svg>